<svg width="16" height="16" viewBox="0 0 16 16" fill="none" xmlns="http://www.w3.org/2000/svg">
<g clip-path="url(#clip0_4_392)">
<path fill-rule="evenodd" clip-rule="evenodd" d="M8.00993 -4C1.36875 -4 -4 1.40833 -4 8.09917C-4 13.4475 -0.560058 17.9748 4.21205 19.5771C4.80869 19.6976 5.02724 19.3168 5.02724 18.9965C5.02724 18.716 5.00757 17.7545 5.00757 16.7527C1.6667 17.474 0.970991 15.3104 0.970991 15.3104C0.434092 13.9082 -0.361425 13.5478 -0.361425 13.5478C-1.45489 12.8066 -0.281775 12.8066 -0.281775 12.8066C0.931166 12.8868 1.56763 14.0486 1.56763 14.0486C2.64118 15.8913 4.37111 15.3707 5.06706 15.0501C5.16638 14.2688 5.48473 13.728 5.82275 13.4276C3.15817 13.1471 0.354687 12.1055 0.354687 7.45803C0.354687 6.13594 0.831604 5.05428 1.58729 4.21304C1.46807 3.91263 1.0504 2.67043 1.70677 1.00787C1.70677 1.00787 2.72083 0.687299 5.00732 2.24981C5.98625 1.98497 6.99581 1.85024 8.00993 1.84911C9.02399 1.84911 10.0577 1.98948 11.0123 2.24981C13.299 0.687299 14.3131 1.00787 14.3131 1.00787C14.9695 2.67043 14.5515 3.91263 14.4323 4.21304C15.2079 5.05428 15.6652 6.13594 15.6652 7.45803C15.6652 12.1055 12.8617 13.1269 10.1772 13.4276C10.6148 13.8081 10.9924 14.5292 10.9924 15.6711C10.9924 17.2936 10.9727 18.5957 10.9727 18.9962C10.9727 19.3168 11.1915 19.6976 11.7879 19.5774C16.56 17.9745 19.9999 13.4475 19.9999 8.09917C20.0196 1.40833 14.6312 -4 8.00993 -4Z" fill="#141719" fill-opacity="0.72"/>
</g>
<defs>
<clipPath id="clip0_4_392">
<rect width="16" height="16" fill="white"/>
</clipPath>
</defs>
</svg>
